<svg width="100" height="100" viewBox="0 0 100 100" fill="none" xmlns="http://www.w3.org/2000/svg">
<rect width="100" height="100" rx="20" fill="white"/>
<path d="M67.432 79.232C68.0293 80.1707 68.264 81.024 68.136 81.792C68.008 82.56 67.6667 83.2 67.112 83.712C66.5573 84.2667 65.8747 84.608 65.064 84.736C64.2533 84.9067 63.4427 84.8213 62.632 84.48C61.8213 84.1813 61.1387 83.584 60.584 82.688L56.168 75.584C55.5707 74.6027 54.76 73.856 53.736 73.344C52.7547 72.8747 51.5387 72.64 50.088 72.64L56.424 70.144C58.4293 70.144 60.0293 70.5067 61.224 71.232C62.4187 71.9147 63.5707 73.1307 64.68 74.88L67.432 79.232ZM50.152 72.64C45.8 72.64 41.9813 71.68 38.696 69.76C35.4533 67.84 32.936 65.152 31.144 61.696C29.352 58.1973 28.456 54.1013 28.456 49.408C28.456 45.8667 28.968 42.688 29.992 39.872C31.016 37.0133 32.4667 34.5813 34.344 32.576C36.264 30.528 38.5467 28.9707 41.192 27.904C43.88 26.7947 46.8667 26.24 50.152 26.24C54.5467 26.24 58.3653 27.2 61.608 29.12C64.8507 30.9973 67.368 33.664 69.16 37.12C70.952 40.576 71.848 44.6507 71.848 49.344C71.848 52.8853 71.336 56.0853 70.312 58.944C69.288 61.8027 67.816 64.256 65.896 66.304C64.0187 68.352 61.736 69.9307 59.048 71.04C56.4027 72.1067 53.4373 72.64 50.152 72.64ZM50.152 65.6C52.9253 65.6 55.272 64.96 57.192 63.68C59.1547 62.4 60.648 60.544 61.672 58.112C62.7387 55.68 63.272 52.7787 63.272 49.408C63.272 44.288 62.12 40.32 59.816 37.504C57.5547 34.688 54.3333 33.28 50.152 33.28C47.4213 33.28 45.0747 33.92 43.112 35.2C41.1493 36.4373 39.6347 38.272 38.568 40.704C37.544 43.0933 37.032 45.9947 37.032 49.408C37.032 54.4853 38.184 58.4533 40.488 61.312C42.792 64.1707 46.0133 65.6 50.152 65.6Z" fill="#FF0065"/>
</svg>
